#!OML:ASF H:\Dans Jumps\Project 1\Capture day 1\Session 1\subject.ASF
:FULLY-SPECIFIED
:DEGREES
187
root 0.0804211 17.5964 -14.211 7.82221 0.654656 -1.42282
lowerback -2.49797 -0.558195 0.531663
upperback 3.09495 -0.847126 1.84424
thorax 4.61514 -0.437264 1.55255
lowerneck -12.5449 0.235451 -2.629
upperneck 31.4985 0.576163 1.40462
head 12.4879 0.124129 1.07673
rclavicle -1.68967e-015 3.97569e-016
rhumerus -23.205 -20.7638 -77.7365
rradius 23.4516
rwrist 32.9872
rhand -20.5239 -26.8602
rfingers 7.12502
rthumb 5.83406 -56.7599
lclavicle -1.68967e-015 3.97569e-016
lhumerus -18.3549 5.83887 86.1317
lradius 16.6625
lwrist 1.33323
lhand -25.4056 -1.84618
lfingers 7.12502
lthumb 1.1198 28.1306
rfemur -14.8054 -1.18028 18.9331
rtibia 20.0419
rfoot -12.5016 -2.49194
rtoes 8.20323
lfemur -13.7613 5.31986 -16.8239
ltibia 18.2971
lfoot -9.77854 5.31013
ltoes -6.3126
188
root 0.0813706 17.5959 -14.2117 7.81336 0.654756 -1.44513
lowerback -2.49419 -0.560921 0.553796
upperback 3.09248 -0.852089 1.85378
thorax 4.61038 -0.439144 1.54972
lowerneck -12.564 0.236435 -2.645
upperneck 31.463 0.57705 1.42097
head 12.4772 0.125042 1.08559
rclavicle -4.07509e-015 3.18055e-015
rhumerus -23.2497 -20.8033 -77.679
rradius 23.4261
rwrist 33.0379
rhand -20.51 -26.8627
rfingers 7.12502
rthumb 5.84748 -56.762
lclavicle -4.07509e-015 3.18055e-015
lhumerus -18.3952 5.9061 86.0609
lradius 16.6269
lwrist 1.27491
lhand -25.3693 -1.71725
lfingers 7.12502
lthumb 1.15484 28.2594
rfemur -14.7957 -1.18831 18.9545
rtibia 20.0372
rfoot -12.5016 -2.476
rtoes 8.22474
lfemur -13.7752 5.31533 -16.8017
ltibia 18.34
lfoot -9.80002 5.31775
ltoes -6.31296
189
root 0.0822884 17.5955 -14.2124 7.80578 0.654433 -1.46862
lowerback -2.49294 -0.562933 0.576223
upperback 3.09142 -0.856197 1.86367
thorax 4.60852 -0.440602 1.54711
lowerneck -12.5854 0.237717 -2.65332
upperneck 31.4295 0.578887 1.42969
head 12.4678 0.126293 1.09036
rclavicle -1.68967e-015 3.97569e-016
rhumerus -23.2933 -20.8454 -77.6235
rradius 23.3996
rwrist 33.0886
rhand -20.4996 -26.8638
rfingers 7.12502
rthumb 5.85744 -56.7629
lclavicle -1.68967e-015 3.97569e-016
lhumerus -18.432 5.98789 85.989
lradius 16.5867
lwrist 1.21143
lhand -25.3246 -1.56243
lfingers 7.12502
lthumb 1.1981 28.414
rfemur -14.7859 -1.20102 18.9775
rtibia 20.0305
rfoot -12.502 -2.45379
rtoes 8.25963
lfemur -13.7913 5.30889 -16.7783
ltibia 18.385
lfoot -9.82057 5.32911
ltoes -6.31092
190
root 0.0832111 17.5951 -14.2128 7.79756 0.652915 -1.4933
lowerback -2.49145 -0.564394 0.599326
upperback 3.09075 -0.859612 1.87378
thorax 4.60689 -0.441699 1.54441
lowerneck -12.6011 0.238571 -2.65117
upperneck 31.3936 0.580653 1.42748
head 12.4564 0.127363 1.08906
rclavicle -2.28602e-015 2.78299e-015
rhumerus -23.3415 -20.8782 -77.5724
rradius 23.3811
rwrist 33.1225
rhand -20.4788 -26.886
rfingers 7.12502
rthumb 5.87753 -56.7845
lclavicle -2.28602e-015 2.78299e-015
lhumerus -18.4685 6.09105 85.9137
lradius 16.5404
lwrist 1.13451
lhand -25.293 -1.44424
lfingers 7.12502
lthumb 1.2286 28.532
rfemur -14.7744 -1.21699 19.0017
rtibia 20.0234
rfoot -12.5042 -2.42632
rtoes 8.30165
lfemur -13.8064 5.29903 -16.7536
ltibia 18.4312
lfoot -9.8389 5.34625
ltoes -6.30898
191
root 0.0841237 17.5946 -14.2131 7.78721 0.649078 -1.51989
lowerback -2.48762 -0.56471 0.623271
upperback 3.09082 -0.861523 1.88424
thorax 4.60466 -0.442029 1.5417
lowerneck -12.6148 0.238112 -2.63805
upperneck 31.3581 0.581232 1.41374
head 12.4448 0.127715 1.08128
rclavicle 4.67144e-015 -2.22639e-014
rhumerus -23.3945 -20.9058 -77.5244
rradius 23.3689
rwrist 33.1423
rhand -20.4561 -26.9103
rfingers 7.12502
rthumb 5.89944 -56.8081
lclavicle 4.67144e-015 -2.22639e-014
lhumerus -18.5058 6.21595 85.8356
lradius 16.4819
lwrist 1.01562
lhand -25.2772 -1.37859
lfingers 7.12502
lthumb 1.24383 28.5975
rfemur -14.7611 -1.23318 19.0279
rtibia 20.0179
rfoot -12.5085 -2.39641
rtoes 8.34631
lfemur -13.8188 5.28619 -16.7262
ltibia 18.4791
lfoot -9.85587 5.36878
ltoes -6.31482
192
root 0.0850351 17.5939 -14.2131 7.77344 0.643135 -1.54227
lowerback -2.48257 -0.563731 0.642837
upperback 3.09292 -0.86144 1.89287
thorax 4.60385 -0.44149 1.5397
lowerneck -12.6283 0.234957 -2.62254
upperneck 31.3232 0.578326 1.39669
head 12.4336 0.126372 1.07134
rclavicle 1.78906e-015 1.27222e-014
rhumerus -23.4497 -20.9348 -77.4774
rradius 23.3564
rwrist 33.1597
rhand -20.4303 -26.9326
rfingers 7.12502
rthumb 5.92439 -56.8298
lclavicle 1.78906e-015 1.27222e-014
lhumerus -18.5449 6.35453 85.7556
lradius 16.4139
lwrist 0.857589
lhand -25.2785 -1.37919
lfingers 7.12502
lthumb 1.24255 28.5969
rfemur -14.745 -1.25126 19.0493
rtibia 20.0157
rfoot -12.5164 -2.36365
rtoes 8.39012
lfemur -13.8263 5.27211 -16.7031
ltibia 18.528
lfoot -9.87262 5.39516
ltoes -6.32663
193
root 0.0858932 17.5932 -14.2131 7.75764 0.633507 -1.56248
lowerback -2.47476 -0.56205 0.658578
upperback 3.09592 -0.860178 1.9008
thorax 4.60241 -0.440485 1.53922
lowerneck -12.6427 0.23099 -2.61246
upperneck 31.2924 0.574726 1.38268
head 12.4242 0.124431 1.06347
rclavicle 9.93923e-016 -1.07344e-014
rhumerus -23.506 -20.9616 -77.4329
rradius 23.3457
rwrist 33.1717
rhand -20.4013 -26.955
rfingers 7.12502
rthumb 5.95242 -56.8514
lclavicle 9.93923e-016 -1.07344e-014
lhumerus -18.5864 6.50124 85.675
lradius 16.3364
lwrist 0.665817
lhand -25.2981 -1.44507
lfingers 7.12502
lthumb 1.22367 28.5312
rfemur -14.7294 -1.26892 19.0682
rtibia 20.0181
rfoot -12.5264 -2.3282
rtoes 8.42927
lfemur -13.8308 5.25626 -16.682
ltibia 18.5774
lfoot -9.88902 5.42678
ltoes -6.34096
194
root 0.0866488 17.5923 -14.213 7.73993 0.6215 -1.58015
lowerback -2.46327 -0.559035 0.670003
upperback 3.09831 -0.856818 1.90803
thorax 4.59825 -0.43857 1.54059
lowerneck -12.6555 0.226513 -2.6089
upperneck 31.2651 0.570187 1.37462
head 12.416 0.122042 1.0589
rclavicle 4.96962e-016 -1.11319e-014
rhumerus -23.5674 -20.994 -77.386
rradius 23.3341
rwrist 33.192
rhand -20.3737 -26.9709
rfingers 7.12502
rthumb 5.97901 -56.8666
lclavicle 4.96962e-016 -1.11319e-014
lhumerus -18.6332 6.64983 85.5961
lradius 16.2538
lwrist 0.447983
lhand -25.337 -1.55663
lfingers 7.12502
lthumb 1.18612 28.4198
rfemur -14.7149 -1.28309 19.0843
rtibia 20.0261
rfoot -12.5379 -2.2948
rtoes 8.46701
lfemur -13.8325 5.23846 -16.6628
ltibia 18.6259
lfoot -9.90302 5.462
ltoes -6.3588
195
root 0.0872291 17.5913 -14.213 7.72383 0.605155 -1.59672
lowerback -2.45481 -0.555037 0.677966
upperback 3.10345 -0.852094 1.91511
thorax 4.5987 -0.436102 1.54383
lowerneck -12.6722 0.223592 -2.61018
upperneck 31.2383 0.567589 1.37192
head 12.4086 0.12063 1.05752
rclavicle -6.75868e-015 7.55382e-015
rhumerus -23.6197 -21.0351 -77.3407
rradius 23.3143
rwrist 33.2245
rhand -20.357 -26.9719
rfingers 7.12502
rthumb 5.99514 -56.8671
lclavicle -6.75868e-015 7.55382e-015
lhumerus -18.6749 6.79649 85.5199
lradius 16.1788
lwrist 0.249696
lhand -25.3534 -1.60656
lfingers 7.12502
lthumb 1.17021 28.37
rfemur -14.7062 -1.29063 19.0996
rtibia 20.0388
rfoot -12.5488 -2.26498
rtoes 8.49488
lfemur -13.8357 5.22434 -16.6446
ltibia 18.6737
lfoot -9.91617 5.49698
ltoes -6.37307
196
root 0.0877431 17.5903 -14.2131 7.70711 0.584435 -1.61042
lowerback -2.44441 -0.550376 0.680449
upperback 3.10835 -0.846197 1.92241
thorax 4.59785 -0.433243 1.55045
lowerneck -12.6884 0.222411 -2.61621
upperneck 31.2141 0.567608 1.37285
head 12.4021 0.120262 1.05875
rclavicle 3.77691e-015 5.56597e-015
rhumerus -23.6728 -21.0788 -77.2937
rradius 23.2932
rwrist 33.2688
rhand -20.3426 -26.9637
rfingers 7.12502
rthumb 6.00907 -56.8585
lclavicle 3.77691e-015 5.56597e-015
lhumerus -18.7182 6.94227 85.4478
lradius 16.1115
lwrist 0.0701189
lhand -25.3516 -1.59061
lfingers 7.12502
lthumb 1.17198 28.3859
rfemur -14.6996 -1.29201 19.1115
rtibia 20.0545
rfoot -12.5577 -2.23791
rtoes 8.51628
lfemur -13.8376 5.21247 -16.6297
ltibia 18.7209
lfoot -9.9274 5.53439
ltoes -6.39156
197
root 0.0882196 17.5893 -14.2131 7.69252 0.558836 -1.62278
lowerback -2.43803 -0.543858 0.681505
upperback 3.11569 -0.837814 1.92803
thorax 4.60176 -0.429175 1.55626
lowerneck -12.7112 0.221949 -2.62426
upperneck 31.193 0.567388 1.38011
head 12.3982 0.12034 1.06278
rclavicle 4.17448e-015 -1.86858e-014
rhumerus -23.721 -21.1218 -77.2503
rradius 23.2688
rwrist 33.3167
rhand -20.3422 -26.9358
rfingers 7.12502
rthumb 6.00948 -56.8306
lclavicle 4.17448e-015 -1.86858e-014
lhumerus -18.7571 7.09005 85.3771
lradius 16.0553
lwrist -0.0832912
lhand -25.3177 -1.50912
lfingers 7.12502
lthumb 1.20476 28.4672
rfemur -14.697 -1.28964 19.1219
rtibia 20.0716
rfoot -12.566 -2.21129
rtoes 8.53063
lfemur -13.8411 5.20548 -16.6168
ltibia 18.7681
lfoot -9.93924 5.57185
ltoes -6.41507
198
root 0.0886314 17.5883 -14.2131 7.67839 0.531763 -1.63551
lowerback -2.43115 -0.53673 0.68245
upperback 3.12388 -0.828602 1.93319
thorax 4.60626 -0.424691 1.56172
lowerneck -12.7296 0.222386 -2.62809
upperneck 31.1671 0.567851 1.3854
head 12.3915 0.121003 1.06534
rclavicle -4.47266e-015 -6.75868e-015
rhumerus -23.7701 -21.1585 -77.2115
rradius 23.2505
rwrist 33.3606
rhand -20.3402 -26.9068
rfingers 7.12502
rthumb 6.01138 -56.8016
lclavicle -4.47266e-015 -6.75868e-015
lhumerus -18.7952 7.22888 85.3097
lradius 16.0113
lwrist -0.199305
lhand -25.2631 -1.37139
lfingers 7.12502
lthumb 1.25748 28.6047
rfemur -14.696 -1.28529 19.1333
rtibia 20.0891
rfoot -12.5729 -2.18773
rtoes 8.52943
lfemur -13.8451 5.20254 -16.6034
ltibia 18.8153
lfoot -9.95207 5.60701
ltoes -6.43551
